<svg width="14" height="15" viewBox="0 0 14 15" fill="none" xmlns="http://www.w3.org/2000/svg">
<path d="M7.00006 0.727051C7.35588 0.727051 7.71421 0.756069 8.02255 0.815218C8.1767 0.844788 8.32761 0.883623 8.46433 0.934778C8.58852 0.981242 8.75789 1.05838 8.90119 1.19208C9.19487 1.46609 9.21082 1.9263 8.93681 2.21998C8.67824 2.49711 8.25388 2.52694 7.96009 2.29918L7.95462 2.29709C7.91581 2.28257 7.8484 2.26288 7.74852 2.24372C7.5488 2.2054 7.28464 2.1816 7.00006 2.1816C6.71549 2.1816 6.45133 2.20541 6.25161 2.24372C6.15173 2.26288 6.08432 2.28257 6.04551 2.29709L6.04004 2.29918C5.74625 2.52694 5.32189 2.49711 5.06332 2.21998C4.78931 1.9263 4.80526 1.46609 5.09894 1.19208C5.24224 1.05838 5.41161 0.981242 5.5358 0.934778C5.67252 0.883623 5.82343 0.844788 5.97758 0.815218C6.28592 0.75607 6.64425 0.727051 7.00006 0.727051Z" fill="#FCDED3"/>
<path fill-rule="evenodd" clip-rule="evenodd" d="M0.45459 4.72705C0.45459 4.12456 0.943007 3.63614 1.5455 3.63614H12.4546C13.0571 3.63614 13.5455 4.12456 13.5455 4.72705V5.09069C13.5455 5.49235 13.2199 5.81796 12.8182 5.81796C12.4166 5.81796 12.091 6.14357 12.091 6.54523V10.1816C12.091 12.2386 12.091 13.2672 11.4519 13.9062C10.8129 14.5452 9.78436 14.5452 7.72732 14.5452H6.27277C4.21573 14.5452 3.18721 14.5452 2.54818 13.9062C1.90914 13.2672 1.90914 12.2386 1.90914 10.1816V6.54523C1.90914 6.14357 1.58352 5.81796 1.18186 5.81796C0.780201 5.81796 0.45459 5.49235 0.45459 5.09069V4.72705ZM5.18186 6.54523C5.58352 6.54523 5.90914 6.87084 5.90914 7.2725V10.9089C5.90914 11.3105 5.58352 11.6361 5.18186 11.6361C4.7802 11.6361 4.45459 11.3105 4.45459 10.9089V7.2725C4.45459 6.87084 4.7802 6.54523 5.18186 6.54523ZM8.81823 6.54523C9.21989 6.54523 9.5455 6.87084 9.5455 7.2725V10.9089C9.5455 11.3105 9.21989 11.6361 8.81823 11.6361C8.41656 11.6361 8.09095 11.3105 8.09095 10.9089V7.2725C8.09095 6.87084 8.41656 6.54523 8.81823 6.54523Z" fill="#FCDED3"/>
</svg>
