<svg width="18" height="18" viewBox="0 0 18 18" fill="none" xmlns="http://www.w3.org/2000/svg">
<path d="M12.7848 8.12446L14.091 6.81827C14.4875 6.42173 14.6858 6.22345 14.7918 6.00957C14.9934 5.60262 14.9934 5.12483 14.7918 4.71789C14.6858 4.504 14.4875 4.30573 14.091 3.90918C13.6944 3.51264 13.4961 3.31436 13.2823 3.20837C12.8753 3.00671 12.3975 3.00671 11.9906 3.20837C11.7767 3.31436 11.5784 3.51264 11.1819 3.90918L9.85922 5.23184C10.5602 6.43228 11.5683 7.43268 12.7848 8.12446Z" fill="#B3B3A5"/>
<path d="M8.80143 6.28963L3.8047 11.2864C3.49556 11.5955 3.34099 11.7501 3.23937 11.94C3.13774 12.1298 3.09487 12.3442 3.00914 12.7729L2.56157 15.0107C2.51319 15.2526 2.489 15.3735 2.55781 15.4423C2.62662 15.5111 2.74757 15.487 2.98946 15.4386L5.22727 14.991C5.65596 14.9053 5.87031 14.8624 6.0602 14.7608C6.25008 14.6592 6.40465 14.5046 6.71379 14.1954L11.7243 9.18498C10.5449 8.44632 9.54727 7.45556 8.80143 6.28963Z" fill="#B3B3A5"/>
</svg>
