<svg width="12" height="12" viewBox="0 0 12 12" fill="none" xmlns="http://www.w3.org/2000/svg">
<path fill-rule="evenodd" clip-rule="evenodd" d="M10.3851 6C10.3851 5.8206 10.2881 5.70278 10.094 5.46714C9.38398 4.60507 7.81787 3 6.00001 3C4.18214 3 2.61604 4.60507 1.90599 5.46714C1.71191 5.70278 1.61487 5.8206 1.61487 6C1.61487 6.1794 1.71191 6.29722 1.90599 6.53286C2.61603 7.39493 4.18214 9 6.00001 9C7.81787 9 9.38398 7.39493 10.094 6.53286C10.2881 6.29722 10.3851 6.1794 10.3851 6ZM6.00001 7.5C6.82843 7.5 7.50001 6.82843 7.50001 6C7.50001 5.17157 6.82843 4.5 6.00001 4.5C5.17158 4.5 4.50001 5.17157 4.50001 6C4.50001 6.82843 5.17158 7.5 6.00001 7.5Z" fill="white"/>
</svg>
