<svg width="21" height="21" viewBox="0 0 21 21" fill="none" xmlns="http://www.w3.org/2000/svg">
<path d="M17.4997 12.0854L17.4794 12.0651C17.0898 11.6754 16.7537 11.3393 16.4536 11.0864C16.1367 10.8193 15.7917 10.5845 15.3665 10.4562C14.8014 10.2857 14.1986 10.2857 13.6335 10.4562C13.2083 10.5845 12.8633 10.8193 12.5464 11.0864C12.2463 11.3393 11.9102 11.6754 11.5206 12.0651L11.4921 12.0936C11.1852 12.4004 11.0046 12.5795 10.8645 12.6954L10.8443 12.7118L10.8317 12.6891C10.7447 12.5295 10.6435 12.2961 10.4726 11.8972L10.397 11.721C10.0411 10.8904 9.74221 10.193 9.4464 9.66734C9.14162 9.12574 8.76183 8.61783 8.16982 8.32106C7.67604 8.07352 7.12351 7.96711 6.57311 8.01356C5.91323 8.06924 5.37197 8.39977 4.88784 8.78944C4.48249 9.1157 4.02754 9.55981 3.5 10.0859V11.4999C3.5 12.0166 3.5003 12.4848 3.50309 12.911L4.617 11.7971C5.30616 11.1079 5.76639 10.6497 6.14186 10.3475C6.51276 10.0489 6.67233 10.0123 6.74128 10.0065C6.92475 9.99099 7.10893 10.0265 7.27352 10.109C7.33539 10.14 7.46994 10.2333 7.70344 10.6482C7.93982 11.0682 8.19694 11.6646 8.58086 12.5605L8.65059 12.7232C8.79949 13.0707 8.93784 13.3936 9.07591 13.6468C9.22061 13.912 9.43076 14.2299 9.78471 14.4489C10.202 14.7072 10.6997 14.8031 11.1831 14.7182C11.593 14.6463 11.9062 14.4292 12.1391 14.2367C12.3613 14.0529 12.6096 13.8045 12.877 13.5371L12.9063 13.5078C13.3325 13.0816 13.6083 12.807 13.8353 12.6157C14.0526 12.4325 14.1552 12.3878 14.2112 12.3709C14.3995 12.3141 14.6005 12.3141 14.7888 12.3709C14.8448 12.3878 14.9474 12.4325 15.1647 12.6157C15.3917 12.807 15.6675 13.0816 16.0937 13.5078L17.4441 14.8582C17.4902 14.1404 17.4983 13.2479 17.4997 12.0854Z" fill="black"/>
<path d="M15 7.5C15.8284 7.5 16.5 6.82843 16.5 6C16.5 5.17157 15.8284 4.5 15 4.5C14.1716 4.5 13.5 5.17157 13.5 6C13.5 6.82843 14.1716 7.5 15 7.5Z" fill="black"/>
<path fill-rule="evenodd" clip-rule="evenodd" d="M9.42684 0.500001H11.5732C13.3966 0.499973 14.8664 0.499951 16.0223 0.655365C17.2225 0.81672 18.233 1.16191 19.0355 1.96447C19.8381 2.76702 20.1833 3.77752 20.3446 4.97767C20.5 6.13363 20.5 7.6034 20.5 9.42686V11.5731C20.5 13.3966 20.5 14.8664 20.3446 16.0223C20.1833 17.2225 19.8381 18.233 19.0355 19.0355C18.233 19.8381 17.2225 20.1833 16.0223 20.3446C14.8664 20.5001 13.3966 20.5 11.5731 20.5H9.42686C7.6034 20.5 6.13363 20.5001 4.97767 20.3446C3.77752 20.1833 2.76702 19.8381 1.96447 19.0355C1.16191 18.233 0.81672 17.2225 0.655365 16.0223C0.499951 14.8664 0.499973 13.3966 0.500001 11.5732V9.42684C0.499973 7.60338 0.499951 6.13362 0.655365 4.97767C0.81672 3.77752 1.16191 2.76702 1.96447 1.96447C2.76702 1.16191 3.77752 0.81672 4.97767 0.655365C6.13362 0.499951 7.60338 0.499973 9.42684 0.500001ZM5.24416 2.63753C4.26579 2.76907 3.7477 3.00966 3.37868 3.37868C3.00966 3.7477 2.76907 4.26579 2.63753 5.24416C2.50213 6.2513 2.5 7.58611 2.5 9.5V11.5C2.5 13.4139 2.50213 14.7487 2.63753 15.7558C2.76907 16.7342 3.00966 17.2523 3.37868 17.6213C3.7477 17.9903 4.26579 18.2309 5.24416 18.3625C6.2513 18.4979 7.58611 18.5 9.5 18.5H11.5C13.4139 18.5 14.7487 18.4979 15.7558 18.3625C16.7342 18.2309 17.2523 17.9903 17.6213 17.6213C17.9903 17.2523 18.2309 16.7342 18.3625 15.7558C18.4979 14.7487 18.5 13.4139 18.5 11.5V9.5C18.5 7.58611 18.4979 6.2513 18.3625 5.24416C18.2309 4.26579 17.9903 3.7477 17.6213 3.37868C17.2523 3.00966 16.7342 2.76907 15.7558 2.63753C14.7487 2.50213 13.4139 2.5 11.5 2.5H9.5C7.58611 2.5 6.2513 2.50213 5.24416 2.63753Z" fill="black"/>
</svg>
