<svg width="14" height="15" viewBox="0 0 14 15" fill="none" xmlns="http://www.w3.org/2000/svg">
<path d="M7.00006 0.727539C7.35588 0.727539 7.71421 0.756558 8.02255 0.815706C8.1767 0.845276 8.32761 0.884111 8.46433 0.935266C8.58852 0.98173 8.75789 1.05887 8.90119 1.19257C9.19487 1.46658 9.21082 1.92679 8.93681 2.22047C8.67824 2.4976 8.25388 2.52742 7.96009 2.29967L7.95462 2.29758C7.91581 2.28306 7.8484 2.26337 7.74852 2.24421C7.5488 2.20589 7.28464 2.18208 7.00006 2.18208C6.71549 2.18208 6.45133 2.20589 6.25161 2.24421C6.15173 2.26337 6.08432 2.28306 6.04551 2.29758L6.04004 2.29967C5.74625 2.52742 5.32189 2.4976 5.06332 2.22047C4.78931 1.92679 4.80526 1.46658 5.09894 1.19257C5.24224 1.05887 5.41161 0.98173 5.5358 0.935266C5.67252 0.884111 5.82343 0.845276 5.97758 0.815707C6.28592 0.756558 6.64425 0.727539 7.00006 0.727539Z" fill="#FCDED3"/>
<path fill-rule="evenodd" clip-rule="evenodd" d="M0.45459 4.72754C0.45459 4.12505 0.943007 3.63663 1.5455 3.63663H12.4546C13.0571 3.63663 13.5455 4.12505 13.5455 4.72754V5.09118C13.5455 5.49284 13.2199 5.81845 12.8182 5.81845C12.4166 5.81845 12.091 6.14406 12.091 6.54572V10.1821C12.091 12.2391 12.091 13.2676 11.4519 13.9067C10.8129 14.5457 9.78436 14.5457 7.72732 14.5457H6.27277C4.21573 14.5457 3.18721 14.5457 2.54818 13.9067C1.90914 13.2676 1.90914 12.2391 1.90914 10.1821V6.54572C1.90914 6.14406 1.58352 5.81845 1.18186 5.81845C0.780201 5.81845 0.45459 5.49284 0.45459 5.09118V4.72754ZM5.18186 6.54572C5.58352 6.54572 5.90914 6.87133 5.90914 7.27299V10.9094C5.90914 11.311 5.58352 11.6366 5.18186 11.6366C4.7802 11.6366 4.45459 11.311 4.45459 10.9094V7.27299C4.45459 6.87133 4.7802 6.54572 5.18186 6.54572ZM8.81823 6.54572C9.21989 6.54572 9.5455 6.87133 9.5455 7.27299V10.9094C9.5455 11.311 9.21989 11.6366 8.81823 11.6366C8.41656 11.6366 8.09095 11.311 8.09095 10.9094V7.27299C8.09095 6.87133 8.41656 6.54572 8.81823 6.54572Z" fill="#CDF0F2"/>
</svg>
