<svg width="61" height="61" viewBox="0 0 61 61" fill="none" xmlns="http://www.w3.org/2000/svg">
<g clip-path="url(#clip0_1685_36868)">
<rect x="0.5" y="0.5" width="60" height="60" rx="16" fill="url(#paint0_radial_1685_36868)"/>
<path d="M30.5098 0.5C17.9851 0.5 14.3221 0.512924 13.61 0.572006C11.0398 0.785717 9.44037 1.19052 7.69793 2.05829C6.3551 2.72527 5.29607 3.49841 4.25088 4.58219C2.3474 6.55867 1.19377 8.99026 0.776153 11.8807C0.573114 13.2839 0.514049 13.57 0.502051 20.7374C0.497436 23.1265 0.502051 26.2708 0.502051 30.4882C0.502051 43.0062 0.515894 46.6665 0.575883 47.3774C0.783536 49.8791 1.17577 51.4531 2.00638 53.1748C3.59378 56.4704 6.62551 58.9445 10.1972 59.8676C11.4338 60.1861 12.7997 60.3615 14.5533 60.4446C15.2962 60.4769 22.8686 60.5 30.4456 60.5C38.0227 60.5 45.5997 60.4908 46.3242 60.4538C48.3546 60.3583 49.5336 60.2 50.8372 59.863C54.4319 58.9353 57.4083 56.4981 59.028 53.1563C59.8424 51.4762 60.2554 49.8422 60.4423 47.4711C60.4829 46.9541 60.5 38.7117 60.5 30.4804C60.5 22.2477 60.4815 14.0205 60.4409 13.5036C60.2517 11.0941 59.8387 9.47399 58.998 7.76154C58.3081 6.35973 57.5421 5.31287 56.43 4.24247C54.4453 2.34631 52.0181 1.19237 49.1257 0.7751C47.7242 0.572468 47.4451 0.512463 40.2741 0.5H30.5098Z" fill="url(#paint1_radial_1685_36868)"/>
<path d="M30.5014 7.49951C24.2549 7.49951 23.4709 7.52683 21.0176 7.63847C18.569 7.7506 16.8976 8.13825 15.4352 8.70704C13.9224 9.29451 12.6392 10.0804 11.3607 11.3593C10.0813 12.6377 9.29546 13.921 8.70607 15.4332C8.13585 16.8962 7.74772 18.568 7.63751 21.0157C7.52777 23.469 7.49902 24.2535 7.49902 30.5C7.49902 36.7466 7.52682 37.5281 7.63799 39.9815C7.75059 42.4301 8.13825 44.1014 8.70655 45.5639C9.2945 47.0766 10.0803 48.3599 11.3593 49.6383C12.6372 50.9177 13.9205 51.7055 15.4323 52.293C16.8957 52.8618 18.5675 53.2494 21.0156 53.3615C23.469 53.4732 24.2525 53.5005 30.4986 53.5005C36.7456 53.5005 37.5271 53.4732 39.9805 53.3615C42.4291 53.2494 44.1024 52.8618 45.5658 52.293C47.0781 51.7055 48.3594 50.9177 49.6374 49.6383C50.9168 48.3599 51.7026 47.0766 52.292 45.5644C52.8574 44.1014 53.2456 42.4296 53.3606 39.982C53.4708 37.5286 53.4995 36.7466 53.4995 30.5C53.4995 24.2535 53.4708 23.4695 53.3606 21.0161C53.2456 18.5675 52.8574 16.8962 52.292 15.4337C51.7026 13.921 50.9168 12.6377 49.6374 11.3593C48.358 10.0799 47.0786 9.29403 45.5644 8.70704C44.0981 8.13825 42.4257 7.7506 39.9771 7.63847C37.5238 7.52683 36.7427 7.49951 30.4942 7.49951H30.5014ZM28.4381 11.6444C29.0505 11.6434 29.7338 11.6444 30.5014 11.6444C36.6426 11.6444 37.3704 11.6664 39.7955 11.7766C42.0381 11.8792 43.2552 12.2539 44.066 12.5687C45.1393 12.9856 45.9046 13.484 46.7091 14.289C47.5141 15.094 48.0125 15.8607 48.4303 16.934C48.7451 17.7438 49.1203 18.9609 49.2224 21.2035C49.3326 23.6281 49.3566 24.3565 49.3566 30.4947C49.3566 36.633 49.3326 37.3613 49.2224 39.786C49.1198 42.0285 48.7451 43.2456 48.4303 44.0554C48.0134 45.1288 47.5141 45.8931 46.7091 46.6976C45.9041 47.5026 45.1398 48.001 44.066 48.4179C43.2562 48.7341 42.0381 49.1079 39.7955 49.2104C37.3709 49.3206 36.6426 49.3446 30.5014 49.3446C24.3598 49.3446 23.632 49.3206 21.2073 49.2104C18.9648 49.1069 17.7477 48.7322 16.9364 48.4174C15.8631 48.0005 15.0964 47.5022 14.2914 46.6971C13.4863 45.8921 12.988 45.1274 12.5702 44.0535C12.2553 43.2437 11.8801 42.0266 11.7781 39.7841C11.6679 37.3594 11.6458 36.6311 11.6458 30.489C11.6458 24.3469 11.6679 23.6224 11.7781 21.1977C11.8806 18.9552 12.2553 17.7381 12.5702 16.9273C12.987 15.854 13.4863 15.0873 14.2914 14.2823C15.0964 13.4772 15.8631 12.9789 16.9364 12.5611C17.7472 12.2448 18.9648 11.871 21.2073 11.768C23.3291 11.6722 24.1514 11.6434 28.4381 11.6386V11.6444ZM42.7789 15.4634C41.2551 15.4634 40.0188 16.6983 40.0188 18.2225C40.0188 19.7463 41.2551 20.9826 42.7789 20.9826C44.3027 20.9826 45.539 19.7463 45.539 18.2225C45.539 16.6987 44.3027 15.4625 42.7789 15.4625V15.4634ZM30.5014 18.6883C23.9784 18.6883 18.6897 23.977 18.6897 30.5C18.6897 37.023 23.9784 42.3093 30.5014 42.3093C37.0245 42.3093 42.3112 37.023 42.3112 30.5C42.3112 23.977 37.0245 18.6883 30.5014 18.6883ZM30.5014 22.8332C34.7354 22.8332 38.1683 26.2655 38.1683 30.5C38.1683 34.734 34.7354 38.1668 30.5014 38.1668C26.2669 38.1668 22.8346 34.734 22.8346 30.5C22.8346 26.2655 26.2669 22.8332 30.5014 22.8332Z" fill="white"/>
</g>
<defs>
<radialGradient id="paint0_radial_1685_36868" cx="0" cy="0" r="1" gradientUnits="userSpaceOnUse" gradientTransform="translate(16.4376 65.1213) rotate(-90) scale(59.4644 55.3066)">
<stop stop-color="#FFDD55"/>
<stop offset="0.1" stop-color="#FFDD55"/>
<stop offset="0.5" stop-color="#FF543E"/>
<stop offset="1" stop-color="#C837AB"/>
</radialGradient>
<radialGradient id="paint1_radial_1685_36868" cx="0" cy="0" r="1" gradientUnits="userSpaceOnUse" gradientTransform="translate(-9.55032 4.8223) rotate(78.6806) scale(26.5808 109.567)">
<stop stop-color="#3771C8"/>
<stop offset="0.128" stop-color="#3771C8"/>
<stop offset="1" stop-color="#6600FF" stop-opacity="0"/>
</radialGradient>
<clipPath id="clip0_1685_36868">
<rect x="0.5" y="0.5" width="60" height="60" rx="16" fill="white"/>
</clipPath>
</defs>
</svg>
