<svg width="61" height="61" viewBox="0 0 61 61" fill="none" xmlns="http://www.w3.org/2000/svg">
<rect x="0.5" y="0.5" width="60" height="60" rx="16" fill="#0377BD"/>
<path fill-rule="evenodd" clip-rule="evenodd" d="M16.625 20.75C19.4555 20.75 21.75 18.4555 21.75 15.625C21.75 12.7945 19.4555 10.5 16.625 10.5C13.7945 10.5 11.5 12.7945 11.5 15.625C11.5 18.4555 13.7945 20.75 16.625 20.75ZM11.5 23.3125V51.5H21.75V23.3125H11.5ZM34.5625 25.3995C36.2291 24.0958 38.191 23.3125 40.9688 23.3125C47.9731 23.3125 52.5 28.3412 52.5 36.125V51.5H42.25V36.125C42.25 32.9156 40.8136 31 38.4062 31C35.9989 31 34.5625 32.9156 34.5625 36.125V51.5H24.3125V23.3125H34.5625V25.3995Z" fill="white"/>
</svg>
