<svg width="61" height="61" viewBox="0 0 61 61" fill="none" xmlns="http://www.w3.org/2000/svg">
<rect x="0.5" y="0.5" width="60" height="60" rx="16" fill="#FFEB3B"/>
<path d="M49.357 44.2071C52.4637 42.7523 51.8324 39.7531 49.7462 39.4186L49.357 44.2071ZM49.357 44.2071C48.4881 44.615 47.316 44.9495 45.7842 45.2267L49.357 44.2071ZM46.3311 28.2987C46.4665 28.784 46.3704 29.37 45.8529 29.9115C45.3183 30.4638 44.5036 30.8376 43.5747 31.1343C43.4115 31.1863 43.0569 31.3 42.7123 31.4386C42.541 31.5074 42.3507 31.5909 42.1785 31.6851C42.0452 31.758 41.7758 31.9128 41.5873 32.1665L41.2459 32.6261L41.4695 33.1533C43.3388 37.5601 46.5102 39.8932 49.5818 40.405L49.5879 40.406C50.1447 40.4953 50.4837 40.9164 50.4994 41.4238C50.5144 41.9043 50.2181 42.6997 48.9329 43.3015L48.9321 43.3019C48.1749 43.6573 47.0984 43.9726 45.6061 44.2427L44.9395 44.3633L44.8043 45.0272C44.5987 46.0368 44.4218 46.5097 44.1737 46.7463C44.0177 46.895 43.6289 47.1275 42.3744 46.8724L42.3744 46.8724L42.3622 46.87C40.664 46.5466 39.4554 46.5526 38.4281 46.8565C37.5009 47.1308 36.7988 47.6336 36.14 48.1054C36.0831 48.1461 36.0265 48.1866 35.9702 48.2268L35.9691 48.2275C33.8983 49.7055 32.4371 50.2255 31.5167 50.4061C31.0572 50.4962 30.7153 50.5053 30.4777 50.498C30.3753 50.4949 30.2935 50.489 30.2097 50.483C30.1911 50.4816 30.1725 50.4803 30.1536 50.479C30.1077 50.4758 30.0415 50.4714 29.976 50.4708C29.9701 50.4707 29.963 50.4706 29.9548 50.4706C29.8279 50.4515 29.7124 50.4466 29.6255 50.4443C29.5546 50.4425 29.4522 50.4423 29.3593 50.4422C29.3029 50.4421 29.25 50.442 29.2098 50.4416C28.9415 50.4386 28.6177 50.4227 28.1996 50.3346C27.3615 50.1582 26.0433 49.6695 24.0504 48.2461L24.0504 48.246C24.0078 48.2156 23.9653 48.1852 23.9228 48.1547C23.1917 47.6313 22.4586 47.1063 21.506 46.8339C20.4789 46.5402 19.2977 46.5593 17.6475 46.8843C16.5549 47.0919 16.1494 46.9989 15.9479 46.8621C15.7389 46.7202 15.4431 46.3221 15.1889 45.0352L15.0568 44.3663L14.3859 44.245C13.4307 44.0722 12.3341 43.8406 11.397 43.4542C10.4368 43.0583 9.84282 42.5807 9.61128 42.04C9.26901 41.2077 9.76282 40.5088 10.4058 40.4061L10.4058 40.4061L10.4157 40.4045C14.1471 39.7704 17.0266 36.6557 18.3016 33.7093C18.4223 33.4571 18.4961 33.2538 18.5385 33.0856C18.5605 32.9983 18.575 32.9169 18.5825 32.8402C18.5863 32.8015 18.5883 32.7642 18.5885 32.7281C18.5886 32.718 18.5886 32.7082 18.5884 32.6988V32.3755L18.3846 32.1073C18.081 31.7078 17.6001 31.5225 17.3353 31.426C17.1406 31.355 16.8919 31.278 16.6527 31.2041C16.5261 31.1649 16.4023 31.1266 16.2905 31.0905C15.5594 30.8539 14.8339 30.558 14.2522 30.0228C13.7207 29.531 13.5598 28.9899 13.6109 28.5369C13.6626 28.0794 13.9454 27.5835 14.5548 27.2202L14.5562 27.2194C15.547 26.6265 16.1392 26.8593 16.8273 27.1298C17.0546 27.2191 17.2925 27.3126 17.5586 27.3818L18.8942 27.7289L18.8082 26.3517C18.7186 24.9163 18.6317 23.374 18.6861 21.918C18.7411 20.4484 18.9384 19.1634 19.3603 18.2111L19.3613 18.2089C21.1227 14.2066 24.5498 12.1213 28.1936 11.6196C31.8703 11.1134 35.6811 12.2336 38.1055 14.5534L38.1066 14.5544C39.8453 16.2134 40.6709 17.8456 41.0458 19.6637C41.4316 21.5346 41.3501 23.6343 41.1839 26.2826L41.091 27.7619L42.4975 27.2941C42.6392 27.247 42.7798 27.189 42.9228 27.13C43.497 26.893 44.1097 26.6402 44.9899 27.0121L45.0154 27.0228L45.0414 27.0322C45.7707 27.2938 46.1911 27.7971 46.3311 28.2987ZM18.5875 32.669L18.587 32.6588L18.5875 32.6688L18.5875 32.669Z" fill="white" stroke="#263238" stroke-width="2"/>
</svg>
